<?xml version="1.0" encoding="UTF-8"?>
<svg id="Layer_1" data-name="Layer 1" xmlns="http://www.w3.org/2000/svg" viewBox="0 0 57 57">
  <defs>
    <style>
      .cls-1 {
        fill: #02262d;
        stroke-width: 0px;
      }
    </style>
  </defs>
  <path class="cls-1" d="M35.26,37.8h-11.83l-3.56-18.59h.65c.93,0,1.69-.76,1.69-1.69s-.76-1.69-1.69-1.69h-3.38c-.93,0-1.69.76-1.69,1.69l4.6,21.97c0,.93.76,1.69,1.69,1.69h13.52c.93,0,1.69-.76,1.69-1.69s-.76-1.69-1.69-1.69Z"/>
  <path class="cls-1" d="M43.24,10.75H13.76c-1.87,0-3.39,1.52-3.39,3.39l4.6,28.74c0,1.86,1.51,3.37,3.37,3.37h20.3c1.86,0,3.37-1.51,3.37-3.37l4.6-28.74c0-1.87-1.52-3.39-3.39-3.39ZM18.36,42.88l-4.6-28.74h29.48s-4.6,28.73-4.6,28.73h-20.29ZM38.65,44.56v-1.69h0v1.69Z"/>
</svg>