<?xml version="1.0" encoding="UTF-8"?>
<svg id="Layer_1" data-name="Layer 1" xmlns="http://www.w3.org/2000/svg" viewBox="0 0 70 70">
  <defs>
    <style>
      .cls-1 {
        fill: #2a2a24;
        stroke-width: 0px;
      }
    </style>
  </defs>
  <path class="cls-1" d="M65.47,25.34c1.12,0,2.02.92,2.02,2.04s-.92,2.02-2.04,2.02-2.02-.91-2.02-2.03c0-1.12.92-2.03,2.04-2.03h0M65.47,29.05c.93,0,1.69-.75,1.69-1.69s-.75-1.69-1.69-1.69-1.69.75-1.69,1.69h0c0,.94.75,1.7,1.69,1.69t0,0h0ZM65.87,27.21c.07-.06.11-.16.09-.26,0-.09-.03-.18-.09-.24-.09-.05-.19-.08-.29-.07h-.5v.64h.49c.11,0,.21,0,.3-.07h0ZM66.29,28.26s.04.09.08.11l-.39.06c-.03-.09-.04-.19-.04-.27v-.25c0-.09-.02-.18-.07-.25-.07-.06-.16-.1-.26-.09h-.53v.86h-.33v-2.07h.98c.29-.03.55.19.57.49v.09c.03.21-.1.41-.29.48.08.03.15.08.19.15.04.09.05.18.05.26l.03.3c0,.07,0,.11,0,.13h0ZM40.5,50.75l-.26,2.52,1.46-.28-1.2-2.23ZM38.09,57.08l.98-9.17,1.7-.33,4.34,8.13-1.77.34-.87-1.63-2.4.47-.19,1.83-1.78.35ZM20.38,48.08l-1.66,1.92,1.35.61.31-2.53ZM14.78,51.86l6.06-6.93,1.58.72-1.11,9.17-1.63-.73.23-1.85-2.24-.98-1.21,1.4-1.67-.79ZM25.87,46.95l1.75.43-1.75,7.01,3.34.58-1.01,1.63-4.46-1.11,2.13-8.55ZM43.62,46.69l5.24,2.79,1.21-5.79,3.81,8.21-1.57.73-1.66-3.56-.61,2.95-2.64-1.42,1.63,3.53-1.59.74-3.82-8.18ZM55.65,47.8c2.75.43,2.46-1.28,1.79-1.44-.38-.37-4.11.15-4.95-.96-.4-.4-1.63-2.43.63-3.93,1.32-.98,3.04-.33,3.04-.33l-.33,1.63c-2.67-.49-2.29,1.29-1.8,1.38,1.14.48,4.17-.38,5.48,1.42,1.81,3.63-3.07,4.55-3.93,4.05l.07-1.82ZM32.59,55.25l3.38-.19-.65,1.87-5.38-.09,3.96-7.15-3.25.19.61-1.79,5.48.1-4.14,7.07ZM15.14,44.8c.33-.42.33-.87-.09-1.22l-.78-.63-1.12,1.38.76.62c.34.3.87.27,1.17-.07.02-.03.04-.05.05-.08ZM13.13,47.62c.36-.35.37-.95.02-1.31-.04-.04-.09-.08-.14-.11l-.81-.65-1.2,1.48.79.65c.39.34.98.33,1.35-.05ZM13.97,40.36l2.21,1.78c.31.24.57.54.76.87,1.19,2.25-1.53,3.95-2.29,3.33,1.38,2.64-2.1,4.26-3.69,2.98l-2.55-2.07,5.56-6.9ZM20.51,16.16l.58,1.72,1.09-.37c.95-.33.87-.61.76-.93l-.2-.6c-.18-.52-.67-.35-1.14-.19l-1.09.37ZM20.23,22.26l-2.11-6.32,4.18-1.4c2.04-.68,2.29.08,2.49.65l.23.68c.26.8-.13,1.1-1.1,1.56.52-.1,1.63-.27,1.91.57l.43,1.28c.07.38.38.66.76.69l-2.29.77c-.26-.11-.45-.34-.54-.59l-.45-1.33c-.14-.43-.25-.73-1.34-.37l-.98.33.93,2.77-2.11.71ZM28.99,19.86l-.75-6.61,2.17-.25.75,6.61-2.17.25ZM40.54,15.54l-2.19-.21.06-.63c.03-.33.06-.7-.96-.79-1.11-.11-1.17.39-1.19.75l-.33,3.49c-.04.44.2.69.98.77,1.1.11,1.14-.34,1.17-.65l.1-1.02-1.37-.13.1-.98,3.56.33-.34,3.6-1.87-.18.04-.4c-.33.17-.89.46-2.16.33-1.06-.11-2.55-.5-2.45-1.6l.36-3.77c.06-.65.27-1.78,3.56-1.46.77.06,1.53.24,2.25.52.65.31.84.68.79,1.1l-.1.95ZM46.87,16.94l-1.78,2.36,1.41.56.37-2.91ZM41.7,20.24l4.58-5.33,2.35.94-.33,6.99-2.08-.82.12-1.11-1.89-.75-.7.89-2.07-.8ZM7.08,30.24c.81,0,1.66-.09,1.66-1.22,0-1.02-.81-1.12-1.53-1.12h-.33l-.05,2.33h.25ZM7.06,26.98c.71,0,1.57-.07,1.57-1.02s-.76-1.02-1.43-1.02h-.31l-.06,2.05h.23ZM10.19,29.07c.02.64-.26,1.25-.77,1.63-.54.39-1.21.42-1.87.42h-2.46c.42-.36.44-.77.44-1.25v-4.3c0-.56-.02-1.13-.44-1.54h2.6c1.1,0,2.25.5,2.25,1.75,0,.84-.46,1.23-1.21,1.5l-.17.06.18.04c.83.14,1.44.86,1.44,1.7h.02ZM17.53,28.59l-.65-2.22-.7,2.22h1.35ZM17.79,29.43h-1.89c-.17.43-.29.88-.37,1.34,0,.17.12.31.28.37h-5.2c.33-.24.49-.64.43-1.04v-3.47c0-.49,0-.95-.43-1.28h2.01c-.43.33-.43.79-.43,1.28v3.67h.49c.65,0,1.27-.05,1.7-.6l-.11,1.04c.11-.19.2-.37.27-.57l1.4-3.79c.09-.22.14-.45.16-.69,0-.12-.06-.25-.16-.33h1.99c-.1.08-.17.19-.18.33.02.24.08.47.18.69l1.25,3.67c.11.42.34.79.65,1.1h-1.96c.15-.09.25-.25.26-.42-.06-.44-.18-.87-.34-1.29ZM23.48,25.18v1.7c-.18-.46-.64-.75-1.12-.72-1.09,0-1.37,1.21-1.37,2.08,0,.95.28,2.09,1.43,2.09.51,0,.96-.32,1.17-.79l-.11,1.79c-.09-.09-.2-.14-.33-.15-.3,0-.6.07-.9.07-1.72,0-2.49-1.46-2.49-3.01s.77-3.02,2.51-3.02c.3,0,.61.07.91.07.11,0,.21-.04.3-.11h0ZM26.85,27.87l1.36,1.93c.4.56.91,1.02,1.51,1.34h-1.93l-2-2.88v1.61c0,.49,0,.95.43,1.28h-2c.33-.24.49-.64.43-1.04v-3.47c0-.49,0-.95-.43-1.28h2c-.43.33-.43.79-.43,1.28v1.14l1.5-1.76c.12-.11.2-.26.23-.42,0-.08-.03-.15-.08-.21h2.04c-.42.21-.8.51-1.11.87l-1.51,1.62ZM34.05,27.72h.36c.58,0,1.23-.06,1.23-.79s-.57-.78-1.11-.78h-.48v1.56ZM34.05,30.34h.39c.65,0,1.31-.07,1.31-.94,0-.77-.61-.86-1.19-.86h-.49v1.79ZM35.77,28.05c.69.11,1.2.7,1.21,1.4.02.53-.22,1.03-.64,1.35-.46.26-1,.38-1.53.33h-2.34c.33-.24.5-.64.44-1.03v-3.47c0-.49,0-.95-.44-1.28h2.44c.89,0,1.85.41,1.85,1.45,0,.71-.39,1.02-1,1.25h0ZM40.63,28.6l-.65-2.22-.7,2.22h1.35ZM49.66,25.22l.1,1.79c-.27-.5-.79-.82-1.35-.86-.35,0-.74.18-.74.58,0,.98,2.42,1.01,2.42,2.77,0,1.15-.84,1.75-1.92,1.75-.36,0-.72-.05-1.06-.15-.08-.02-.15-.04-.23-.05-.1,0-.19.05-.23.14l-.1-1.27-.13,1.22h-5.44c.15-.09.25-.25.26-.42-.05-.44-.18-.87-.34-1.29h-1.87c-.17.43-.29.88-.37,1.34,0,.17.12.31.28.37h-1.96c.34-.24.57-.58.68-.98l1.4-3.79c.09-.22.14-.45.16-.69,0-.12-.06-.25-.16-.33h1.99c-.11.08-.17.19-.19.33.02.24.09.47.19.69l1.27,3.67c.11.39.32.75.6,1.04.28-.25.42-.61.37-.98v-3.48c0-.49,0-.95-.43-1.28h2c-.43.33-.43.79-.43,1.28v3.67h.49c.63,0,1.24-.05,1.67-.56l-.03-.44c.42.58.92,1.06,1.7,1.06.39.03.72-.26.74-.65h0c0-1.05-2.42-1.06-2.42-2.91,0-.95.9-1.56,1.78-1.56.37,0,.72.14,1.07.14.11-.02.19-.07.26-.14h-.02ZM53.68,28.6l-.65-2.22-.7,2.22h1.35ZM59.04,29.89l-1.62-3.66v3.41c0,.56.02,1.17.48,1.5h-3.89c.15-.09.25-.25.26-.42-.05-.44-.18-.87-.34-1.29h-1.88c-.17.43-.29.88-.36,1.34,0,.17.12.31.28.37h-1.96c.34-.24.57-.58.68-.98l1.4-3.79c.09-.22.15-.46.16-.7,0-.12-.06-.25-.16-.33h1.99c-.11.08-.17.19-.19.33.02.24.09.47.19.69l1.26,3.67c.11.36.29.7.55.98.37-.33.43-.85.47-1.4v-4.21c.05-.48-.11-.95-.43-1.31h1.66l1.53,3.39,1.48-3.39h1.69c-.29.23-.46.57-.47.94v4.58c.05.58.09,1.17.57,1.5h-2.17c.33-.22.51-.59.49-.98v-3.93l-1.66,3.67ZM3.38,35.82c.56,0,.65-.33.65-.58.04-.2-.11-.39-.31-.42-.04,0-.08,0-.11,0h-.23v1ZM2.47,34.03h1.24c.65,0,1.25.36,1.25,1.14.02.44-.19.86-.53,1.12l.95,1.61-.91.28-.87-1.62h-.21v1.51h-.91v-4.05ZM11.57,36v1.83l-.13.04c-.42.16-.87.25-1.32.26-1.12.07-2.08-.78-2.16-1.89,0-.07,0-.13,0-.2.02-1.17.97-2.09,2.14-2.08h.09c.46-.02.92.12,1.29.4l.14.11-.42.62-.17-.11c-.25-.17-.54-.26-.84-.26-.66-.04-1.24.45-1.28,1.11,0,.06,0,.13,0,.19-.05.68.45,1.28,1.14,1.34h.09c.19,0,.36-.02.54-.06v-1.31h.9ZM14.05,35.38c-.06.29-.15.57-.26.85h.55c-.08-.26-.19-.53-.28-.84h0ZM14.49,34.03l1.51,4.05h-1.02l-.39-1.07h-1.1l-.39,1.07h-.93l1.63-4.05h.67ZM18.48,35.07l-.14-.11c-.14-.12-.33-.19-.51-.22-.26,0-.37.14-.37.29,0,.09.05.17.11.23.15.15.32.28.49.4.5.37.87.76.87,1.31,0,.73-.68,1.16-1.32,1.16-.43,0-.85-.15-1.17-.44l-.12-.12.44-.6.16.11c.19.17.42.26.68.28.27,0,.43-.12.43-.4-.02-.17-.11-.33-.25-.43-.08-.07-.17-.14-.26-.2l-.26-.19-.24-.19c-.09-.07-.16-.14-.23-.23-.17-.19-.26-.44-.26-.7,0-.64.61-1.06,1.24-1.06.4-.02.78.14,1.05.43l.12.13-.48.54ZM7.14,38.04h-.9v-4.05h.9v4.05ZM5.68,33.27h2v.4h-2v-.4ZM52.19,34.96l-1.29-.12v.86h1.26v.65h-1.26v.97l1.52-.13v.92h-2.42v-4.04h2.19v.89ZM53.17,34.07h.91v3.27l1.35-.11v.88h-2.25v-4.05h0ZM61.2,35.42c-.06.29-.15.57-.26.85h.55c-.08-.26-.19-.55-.28-.85h0ZM61.63,34.07l1.5,4.05h-1.02l-.39-1.08h-1.1l-.38,1.08h-.93l1.63-4.05h.68ZM64.43,38.11h-.9v-4.05h.9v4.05ZM67.05,35.1l-.14-.11c-.14-.12-.32-.2-.51-.22-.26,0-.37.14-.37.29,0,.09.05.17.11.23.15.15.32.28.49.4.5.37.87.76.87,1.31,0,.73-.68,1.15-1.32,1.15-.43,0-.86-.14-1.18-.42l-.12-.12.45-.6.16.11c.19.17.42.26.67.28.27,0,.43-.12.43-.4-.02-.17-.11-.33-.24-.43-.08-.07-.17-.14-.26-.2l-.26-.19-.24-.19c-.09-.07-.16-.14-.23-.23-.17-.2-.26-.46-.25-.72,0-.65.6-1.06,1.24-1.06.4-.02.78.14,1.05.43l.12.13-.48.55ZM45.61,34l1.7,2.16,1.7-2.16v4.12h-.84v-1.78l-.87,1.1-.86-1.1v1.78h-.85v-4.12ZM58.98,38.11h-.72l-1.35-2.35v2.35h-.82v-4.05h.69l1.38,2.37v-2.37h.82v4.05ZM27.7,38.35h.98c-.19.19-.27.48-.23.74v4.47c0,.63,0,1.06.6,1.43h-2.49c.59-.37.6-.79.6-1.43v-3.28c-.34.29-.78.45-1.23.44l-.39-1.11c.19.11.4.18.62.18.79-.03,1.46-.64,1.54-1.44h0ZM29.53,38.35h3.9c-.19,3.04-2.44,5-2.44,6.08,0,.24.14.46.36.56h-1.78c-.03-.11-.04-.22-.04-.33,0-.62.33-1.16.67-1.63.52-.79,1.8-2.64,1.88-3.6h-1.44c-.55-.04-1.09.17-1.47.56l.35-1.63ZM35.4,39.42l-.12,1.07h.24c1.31,0,2.31.83,2.31,2.18,0,1.43-.93,2.46-2.38,2.46-.4,0-.78-.12-1.14-.12-.11,0-.23.04-.33.1l-.16-1.72c.33.43.83.7,1.38.72.72-.03,1.29-.63,1.26-1.35-.03-.72-.63-1.29-1.35-1.26-.44,0-.87.18-1.2.47l.4-3.6h3.02l.27,1.31c-.24-.19-.54-.28-.85-.26l-1.35.03ZM38.73,39.98l.21-1.77c.11.06.24.09.37.08.36,0,.72-.08,1.08-.08,1.02-.06,1.88.72,1.94,1.73v.13c0,1.6-1.26,2.85-2.38,3.85h1.05c.53.05,1.05-.12,1.45-.48l-.33,1.55h-3.7c-.03-.34-.08-.66-.18-.98,1.06-.65,2.87-2.23,2.87-3.56.04-.59-.41-1.1-1-1.15h-.07c-.67,0-.85.28-1.32.66h0s0,0,0,0ZM38.4,36.42l.16.52c-.21.08-.43.11-.65.12-.93,0-1.69-.56-1.69-1.47,0-.85.69-1.41,1.63-1.41.25,0,.49.05.72.14l-.2.49c-.15-.04-.31-.05-.46-.05-.43,0-.79.33-.81.77v.1c-.03.44.32.81.75.84h.07c.16,0,.32-.02.48-.06h0ZM41.25,34.24v.52h-.85v.54h.83v.52h-.83v.67h1.03v.52h-1.86v-2.79l1.68.02ZM29.09,34.38l-.21.43c-.12-.07-.26-.11-.41-.1-.17,0-.25.08-.25.17,0,.15.23.28.5.53.27.19.44.5.44.84,0,.25-.2.82-1.03.82-.32,0-.63-.08-.88-.26l.26-.46c.13.11.3.19.48.19.17,0,.35-.08.35-.29s-.26-.38-.49-.57c-.29-.26-.46-.41-.46-.74,0-.44.45-.75.98-.75.26,0,.5.06.72.19h0ZM31.16,37.02h-.85v-2.8h.84v2.8ZM35.15,34.24v2.78h-.57c-.45-.52-.87-1.07-1.25-1.63v1.63h-.65v-2.8h.6c.44.5.85,1.03,1.21,1.6v-1.6l.66.02Z"/>
</svg>