<?xml version="1.0" encoding="UTF-8"?>
<svg id="Layer_1" data-name="Layer 1" xmlns="http://www.w3.org/2000/svg" viewBox="0 0 71 70">
  <defs>
    <style>
      .cls-1 {
        fill: #000;
      }

      .cls-1, .cls-2, .cls-3 {
        stroke-width: 0px;
      }

      .cls-2 {
        fill: #ed1c24;
      }

      .cls-3 {
        fill: #fff;
      }
    </style>
  </defs>
  <path class="cls-3" d="M27.71,23.86c.23.24.46.49.7.73,1.72,1.73,3.44,3.45,5.18,5.16.2.19.51.38.77.38,4.04.03,8.07.02,12.11.02.12,0,.24-.03.42-.06-.21-.73-.41-1.43-.61-2.13-.34-1.22-.71-2.44-1.02-3.67-.12-.46-.33-.6-.8-.6-5,.02-10,.01-15,.01-.56,0-1.12,0-1.69,0-.02.05-.04.1-.06.15Z"/>
  <path class="cls-3" d="M24.49,37.92c.72,0,1.43.03,2.15-.02.35-.02.74-.13,1.02-.33.74-.53.72-1.36-.02-1.88-1.19-.82-2.56-1.16-3.94-1.45-.42-.09-.85-.19-1.27-.18-.37,0-.78.08-1.09.26-.62.36-.86,1.52-.58,2.47.19.66.8,1.09,1.6,1.11.72.01,1.43,0,2.15,0Z"/>
  <path class="cls-3" d="M48.24,37.92c.67,0,1.35,0,2.02,0,1.15,0,1.72-.59,1.73-1.75,0-.27.01-.53-.01-.8-.09-.84-.77-1.43-1.61-1.34-1.65.18-3.26.57-4.75,1.32-.87.44-1.18.89-1.05,1.46.17.7.77,1.09,1.7,1.09.65,0,1.31,0,1.96,0h0Z"/>
  <path class="cls-3" d="M30.43,30.1c-1.7-1.66-4-4-5.65-5.61-.45,1.56-1.02,3.92-1.51,5.61,2.14,0,4.99,0,7.17,0Z"/>
  <path class="cls-1" d="M21.5,30.69c-.79.86-1.46,1.57-2.09,2.32-.2.24-.38.6-.38.9-.02,3.48,0,6.96,0,10.45,0,.57.21.82.8.81,1.86-.02,3.73,0,5.59,0,.71,0,.79-.09.79-.84,0-.69,0-1.37,0-2.05.16-.03.22-.04.28-.04,4.96,0,10.9,0,15.86.01.24,0,.54.17.72.35.85.84,1.7,1.69,2.55,2.54h6.62l.03.02c.17,0,.35,0,.52.01.58.03.82-.23.82-.8.01-3.5.04-7,.04-10.5,0-.26-.17-.57-.35-.78-.67-.78-1.37-1.53-2.16-2.4.48,0,.79,0,1.09,0,1.43,0,1.46-.05,1.37-1.49-.03-.4-.19-.61-.6-.61-.92,0-1.84,0-2.84,0-.5-1.74-1.03-3.5-1.51-5.28-.16-.61-.48-.81-1.09-.81-4.79.01-9.58,0-14.37,0h-10.42s1.04,1.06,1.04,1.06l-.22.81s0,.01,0,.02c-.38,1.42-.79,2.84-1.18,4.2h-2.13c-1.35,0-1.34,0-1.33,1.37,0,.51.18.76.72.74.54-.02,1.08,0,1.8,0ZM45.58,35.36c1.5-.76,3.1-1.14,4.75-1.32.83-.09,1.52.5,1.61,1.34.03.26.02.53.01.8-.01,1.16-.58,1.74-1.73,1.75-.67,0-1.35,0-2.02,0h0c-.65,0-1.31,0-1.96,0-.94,0-1.54-.39-1.7-1.09-.14-.57.17-1.02,1.05-1.46ZM27.71,23.86s.04-.1.06-.15c.56,0,1.12,0,1.69,0,5,0,12.46,0,17.46-.01.47,0,.69.14.8.6.31,1.23.67,2.45,1.02,3.67.2.7.4,1.4.61,2.13-.19.03-.31.06-.42.06-4.04,0-10.53,0-14.57-.02-.26,0-.57-.19-.77-.38-1.74-1.71-3.45-3.44-5.18-5.16-.24-.24-.47-.49-.7-.73ZM30.15,30.14c-2.18,0-4.79-.04-6.92-.04.49-1.69,1.06-4.06,1.51-5.61,1.65,1.62,3.69,3.69,5.41,5.65ZM22.39,34.07c.42,0,.85.09,1.27.18,1.38.29,2.76.63,3.94,1.45.75.51.76,1.35.02,1.88-.28.2-.67.3-1.02.33-.71.05-1.43.01-2.15.02-.72,0-1.43.01-2.15,0-.8-.02-1.41-.45-1.6-1.11-.28-.95-.04-2.11.58-2.47.31-.18.72-.26,1.09-.26Z"/>
  <path class="cls-2" d="M9.5,35c0,14.36,11.64,26,26,26,14.36,0,26-11.64,26-26,0-14.36-11.64-26-26-26-14.36,0-26,11.64-26,26ZM57.5,35c0,5.18-1.79,9.93-4.78,13.69l-30.92-30.92c3.76-2.99,8.51-4.78,13.69-4.78,12.15,0,22,9.85,22,22ZM13.5,35c0-5.4,1.94-10.34,5.17-14.17l1.28,1.28,1.62,1.62,28.1,28.1c-3.83,3.23-8.77,5.17-14.17,5.17-12.15,0-22-9.85-22-22Z"/>
</svg>