<?xml version="1.0" encoding="UTF-8"?>
<svg id="Layer_1" data-name="Layer 1" xmlns="http://www.w3.org/2000/svg" viewBox="0 0 71 70">
  <defs>
    <style>
      .cls-1 {
        fill: #000;
      }

      .cls-1, .cls-2 {
        stroke-width: 0px;
      }

      .cls-2 {
        fill: #ed1c24;
      }
    </style>
  </defs>
  <path class="cls-1" d="M31.92,27.79c-.23.54-.42.77-.67.75l-2.38,2.27h0c-.44.4-.94.86-1.44,1.32-1.99,1.82-1.89,4.24.29,5.81,1.34.97,2.73,1.89,4.15,2.73.88.52,1.53,1.22,1.86,2.12.37,1.02,0,2.03-.42,2.99-.37.83-.81,1.64-1.15,2.48-1.17,2.89-1.22,5.8-.1,8.71.07.19.11.39.18.61,2.12.41,5.66.85,8.85.11-.2.04-.4.08-.61.12-.07.01-.14,0-.29-.02-.05-1.07-.13-2.09-.13-3.12,0-.21.29-.45.5-.62,1-.82,2.1-1.53,3.01-2.43,1.13-1.12,2.16-2.68,2.36-4.29.4-3.3-1.73-6.63-1.73-6.63-.92-1.73-1.16-1.9-2.09-3.69.24-.19.69-.48,1.06-.85.67-.64,1.05-1.37.68-2.36-.11-.31-.03-.75.1-1.08.55-1.33,1.15-2.64,1.75-3.95.09-.2.27-.37.41-.55.08.07.17.14.36.3.34-.13.84-.33,1.51-.6-.32-.06-.45-.08-.59-.11.29-1.05-.41-2.55-1.34-2.81.2-.95.4-1.9.65-3.04-1.28.51-2.43.96-3.72,1.47.96.65,1.81,1.23,2.59,1.76-1.22,2.08-2.41,4.09-3.64,6.18-1.77-1.17-3.66-1.91-4.79-3.69-.51-.81-.59-1.65-.5-2.55.05-.49.3-.77.81-.86.54-.1,1.07-.27,1.61-.39.42-.1.66-.31.68-.79.03-.66.09-1.33.23-1.98.05-.22.39-.37.67-.6-.13-.2-.25-.43-.42-.61-.73-.76-.83-1.7-.79-2.67.05-1.21-.34-1.89-1.51-2.21-2.11-.57-4.1-.46-5.69,1.32-.13.14-.46.21-.66.15-1.51-.42-2.96.35-3.33,1.91-.16.69-.28,1.46-.13,2.13.35,1.56-.49,2.37-1.52,3.1l.04.03s-.29,1.15,1.15,1.15c.04,0,.07,0,.1.01,2.35-.45,2.84-2.13,2.88-4.16,0-.42-.07-.94.6-1.16.12.34.2.7.37,1,.47.85.99,1.68,1.45,2.54.14.26.29.64.2.88-.43,1.3-.89,2.59-1.43,3.84ZM32.94,38.64c-1.22-1.12-2.45-2.24-3.78-3.46.67-.5,1.27-.95,2.02-1.51.69,1.69,1.34,3.26,1.98,4.83-.07.05-.15.1-.22.15Z"/>
  <path class="cls-2" d="M9.5,35c0,14.36,11.64,26,26,26,14.36,0,26-11.64,26-26s-11.64-26-26-26c-14.36,0-26,11.64-26,26ZM57.5,35c0,5.18-1.79,9.93-4.78,13.69l-30.92-30.92c3.76-2.99,8.51-4.78,13.69-4.78,12.15,0,22,9.85,22,22ZM13.5,35c0-5.4,1.94-10.34,5.17-14.17l1.28,1.28,1.62,1.62,28.1,28.1c-3.83,3.23-8.77,5.17-14.17,5.17-12.15,0-22-9.85-22-22Z"/>
</svg>