<?xml version="1.0" encoding="UTF-8"?>
<svg id="Layer_1" data-name="Layer 1" xmlns="http://www.w3.org/2000/svg" viewBox="0 0 71 70">
  <defs>
    <style>
      .cls-1 {
        fill: #ed1c24;
      }

      .cls-1, .cls-2 {
        stroke-width: 0px;
      }

      .cls-2 {
        fill: #231f20;
      }
    </style>
  </defs>
  <g>
    <path class="cls-2" d="M25.24,34.52v3.99h-8.5v-3.99h8.5Z"/>
    <path class="cls-2" d="M29.4,49.27v-26.47c-.87.24-2.61.46-3.37.48v-3.33c1.94-.26,3.69-1.34,4.55-2.35h3.16v31.67h-4.34Z"/>
    <path class="cls-2" d="M37.6,41.86v-3.29c0-3.96,1.66-5.22,3.17-6.16-1.72-1.08-2.72-2.67-2.72-6.01v-1.52c0-4.96,2.54-7.46,6.9-7.46,3.82,0,6.59,2.05,6.59,7.53v1.36c0,3.9-1.27,5.2-2.74,6.07,1.89.95,3.15,2.58,3.15,6.19v3.01c0,5.83-2.58,8.08-7.26,8.08-3.99,0-7.09-1.83-7.09-7.8ZM47.62,42.08v-4.05c0-2.7-1.01-3.72-2.88-3.72s-2.83,1.18-2.83,3.74v4.02c0,2.3.83,3.86,2.85,3.86s2.86-1.31,2.86-3.85ZM42.17,24.62v2.54c0,2.11.9,3.43,2.65,3.43s2.57-1.03,2.57-3.52v-2.47c0-1.97-.51-3.5-2.6-3.5-1.97,0-2.62,1.53-2.62,3.52Z"/>
  </g>
  <path class="cls-1" d="M9.5,34.03c0,14.36,11.64,26,26,26,14.36,0,26-11.64,26-26,0-14.36-11.64-26-26-26-14.36,0-26,11.64-26,26ZM57.5,34.03c0,5.18-1.79,9.93-4.78,13.69l-30.92-30.92c3.76-2.99,8.51-4.78,13.69-4.78,12.15,0,22,9.85,22,22ZM13.5,34.03c0-5.4,1.94-10.34,5.17-14.17l1.28,1.28,1.62,1.62,28.1,28.1c-3.83,3.23-8.77,5.17-14.17,5.17-12.15,0-22-9.85-22-22Z"/>
</svg>