<?xml version="1.0" encoding="UTF-8"?>
<svg id="Layer_1" data-name="Layer 1" xmlns="http://www.w3.org/2000/svg" viewBox="0 0 50 50">
  <defs>
    <style>
      .cls-1 {
        fill: #000;
        stroke-width: 0px;
      }
    </style>
  </defs>
  <g>
    <path class="cls-1" d="M22.15,2.47c-.75-.42-1.6-.64-2.46-.64-1.74,0-3.38.92-4.28,2.41l-4.6,7.58c-.08.14-.11.3-.07.45.04.15.13.28.27.37l7.83,4.65c.28.16.64.07.81-.2l6.06-9.98-1.74-2.86c-.45-.73-1.08-1.34-1.83-1.77Z"/>
    <path class="cls-1" d="M43.15,5.07c-.06-.05-.11-.02-.13-.01l-3.95,2.35-1.94-3.19c-.9-1.48-2.53-2.39-4.25-2.39h-9.95c.76.49,1.4,1.14,1.87,1.91l2.02,3.33,3.4,5.6-4.35,2.58s-.07.04-.05.12c.02.08.08.08.1.08l12.48.85s.09-.02.11-.07l4.67-11.03s.03-.07-.03-.13Z"/>
  </g>
  <g>
    <path class="cls-1" d="M8.11,38.4c.03-.81.24-1.61.67-2.55l1.34-2.54h0l3.56-6.72,4.45,2.41s.07.04.13-.02c.06-.06.03-.11.02-.13l-5.66-11.15s-.06-.06-.1-.06c0,0-.01,0-.02,0l-11.87,1.64s-.08.01-.09.09.04.11.06.12l4.04,2.19-1.75,3.3c-.81,1.53-.76,3.39.12,4.88l5.09,8.54Z"/>
    <path class="cls-1" d="M9.78,41.18c.89,1.49,2.52,2.43,4.26,2.44l8.87.07c.12.02.31-.06.42-.17.11-.11.18-.26.17-.42v-9.11c-.01-.32-.28-.59-.6-.59h0l-11.68-.1-1.57,2.96c-.42.92-.6,1.69-.58,2.47.02.59.13,1.17.35,1.71.1.25.22.5.36.73Z"/>
  </g>
  <g>
    <path class="cls-1" d="M33.97,28.02s-.03,0-.04,0c-.05,0-.07.04-.08.05l-7.22,10.21s-.03.09,0,.13l6.99,9.73s.05.06.12.04c.08-.02.08-.08.08-.1l.05-4.6h3.73s0,0,0,0c1.72,0,3.35-.91,4.25-2.38l5.18-8.49c-.8.39-1.69.6-2.59.6h-3.94s0,0,0,0h-6.51s.06-5.07.06-5.07c0-.02,0-.08-.08-.11Z"/>
    <path class="cls-1" d="M48.71,29.85h0c.8-1.32.96-2.93.45-4.34-.07-.2-.16-.4-.26-.59h0l-4.07-7.88c-.07-.14-.2-.25-.35-.29-.15-.05-.31-.03-.45.04l-8.05,4.26c-.28.15-.4.51-.25.79l5.37,10.38h3.35s0,0,0,0c1.31,0,2.59-.53,3.53-1.45.28-.28.53-.59.74-.93Z"/>
  </g>
</svg>