<?xml version="1.0" encoding="UTF-8"?>
<svg id="Layer_1" data-name="Layer 1" xmlns="http://www.w3.org/2000/svg" viewBox="0 0 57 57">
  <defs>
    <style>
      .cls-1 {
        fill: #02262d;
        stroke-width: 0px;
      }
    </style>
  </defs>
  <path class="cls-1" d="M37.31,21.16h-2.93v-13.1c0-1.68-1.37-3.05-3.05-3.05h-5.65c-1.68,0-3.05,1.37-3.05,3.05v13.1h-2.93c-1.62,0-2.94,1.32-2.94,2.94v24.97c0,1.62,1.31,2.93,2.93,2.93h17.64c1.62,0,2.93-1.31,2.93-2.93v-24.97c0-1.62-1.32-2.94-2.94-2.94ZM37.31,43.19v5.88s-17.63,0-17.63,0v-5.88h1.47v2.94c0,.81.66,1.47,1.47,1.47h11.75c.81,0,1.47-.66,1.47-1.47s-.66-1.47-1.47-1.47h-10.28v-1.47h10.28v-13.22h-10.28v-1.47h1.47c.81,0,1.47-.66,1.47-1.47s-.66-1.47-1.47-1.47h-2.94c-.81,0-1.47.66-1.47,1.47v2.94h-1.46v-5.88s17.62,0,17.62,0v5.87s-1.47,0-1.47,0v13.22h1.47ZM31.44,9.41h-5.87v-1.35c0-.06.05-.11.11-.11h5.65c.06,0,.11.05.11.11v1.35ZM25.56,12.34h5.87v8.81h-5.87v-8.81ZM37.32,49.06h0v1.47s0-1.47,0-1.47Z"/>
</svg>