<?xml version="1.0" encoding="UTF-8"?>
<svg id="Layer_1" data-name="Layer 1" xmlns="http://www.w3.org/2000/svg" viewBox="0 0 50 50">
  <defs>
    <style>
      .cls-1 {
        fill: #000;
        stroke-width: 0px;
      }
    </style>
  </defs>
  <path class="cls-1" d="M28.97,38.96v-10.54c5.57-1.56,9.52-6.34,9.52-12.15s-1.7-10.32-3.12-13.36c-.26-.56-.82-.91-1.44-.91h-17.84c-.61,0-1.17.36-1.44.91-.94,2-3.12,7.32-3.12,13.36s3.95,10.59,9.52,12.15v10.54c-4.46,1.78-7.93,4.98-7.93,7.45,0,.88.71,1.59,1.59,1.59h20.62c.88,0,1.59-.71,1.59-1.59,0-2.47-3.47-5.68-7.93-7.45ZM25.79,44.83h-8.32c1.14-1.08,3.07-2.39,5.65-3.25.65-.22,1.08-.82,1.08-1.5v-14.31c-5.4-.36-9.52-4.39-9.52-9.48,0-3.45.89-7.53,2.42-11.1h15.79c1.18,2.75,2.41,6.67,2.41,11.1,0,5.09-4.12,9.12-9.52,9.48v14.31c0,.68.44,1.29,1.08,1.5,2.58.86,4.51,2.18,5.66,3.25h-6.74ZM16.28,16.28c0-3.02.89-5.88,1.59-7.93h9.52v7.93c0,.88.71,1.59,1.59,1.59s1.59-.71,1.59-1.59v-7.93h1.59c.77,2.22,1.59,4.95,1.59,7.93,0,10.17-17.45,11.01-17.45,0Z"/>
</svg>